<?xml version="1.0" encoding="UTF-8"?>
<svg id="Layer_1" xmlns="http://www.w3.org/2000/svg" viewBox="0 0 1080 1080">
  <defs>
    <style>
      .cls-1 {
        fill: #86754f;
      }

      .cls-2 {
        fill: #00594e;
      }
    </style>
  </defs>
  <g>
    <path class="cls-2" d="M348.57,311.39h-151.23c-1.69,0-3.07,1.39-3.07,3.07v39.52c0,1.69,1.38,3.07,3.07,3.07h50.85v209.27c0,1.81,1.48,3.3,3.3,3.3h42.5c1.81,0,3.3-1.49,3.3-3.3v-209.27h51.28c1.69,0,3.07-1.38,3.07-3.07v-39.52c0-1.68-1.38-3.07-3.07-3.07ZM329.52,336.52h-54.67v211.82c0,1.3-1.06,2.36-2.37,2.36s-2.36-1.06-2.36-2.36v-211.82h-52.34c-1.31,0-2.37-1.06-2.37-2.36s1.06-2.37,2.37-2.37h111.74c1.31,0,2.36,1.06,2.36,2.37s-1.05,2.36-2.36,2.36Z"/>
    <path class="cls-2" d="M504.55,357.57c1.69,0,3.07-1.38,3.07-3.07v-39.52c0-1.69-1.38-3.07-3.07-3.07h-110.49c-.1,0-.19.05-.3.06h-8.86c-1.82,0-3.3,1.49-3.3,3.3v251.43c0,1.82,1.48,3.31,3.3,3.31h8.86c.11,0,.2.06.3.06h110.49c1.69,0,3.07-1.38,3.07-3.07v-39.52c0-1.69-1.38-3.07-3.07-3.07h-73.85v-61.05h57.55c1.69,0,3.07-1.38,3.07-3.07v-39.51c0-1.69-1.38-3.07-3.07-3.07h-57.55v-60.14h73.85ZM468.95,438.63c1.3,0,2.36,1.06,2.36,2.36s-1.06,2.36-2.36,2.36h-59.46v101.59h75.24c1.3,0,2.36,1.06,2.36,2.36s-1.06,2.37-2.36,2.37h-77.61c-1.3,0-2.36-1.06-2.36-2.37v-212.74c0-1.3,1.06-2.36,2.36-2.36h78.9c1.3,0,2.36,1.06,2.36,2.36s-1.06,2.37-2.36,2.37h-76.53v101.7h59.46Z"/>
    <path class="cls-2" d="M678.51,311.41h-42.5c-1.82,0-3.31,1.49-3.31,3.3v118.66l-44.02-101.14s-6.62-16.17-7.25-17.55c-.88-1.89-1.77-3.27-4.08-3.27h-34.47c-1.81,0-3.3,1.49-3.3,3.3v252.06c0,1.81,1.49,3.3,3.3,3.3h42.5c1.82,0,3.3-1.49,3.3-3.3v-119.52l44.02,102s6.63,16.17,7.26,17.55c.88,1.89,1.76,3.27,4.08,3.27h34.47c1.81,0,3.3-1.49,3.3-3.3v-252.06c0-1.81-1.49-3.3-3.3-3.3ZM659.75,543.68c0,1.11-.78,2.08-1.86,2.31-1.09.23-2.2-.34-2.65-1.33l-88.67-195.93v196.5c0,1.31-1.06,2.37-2.37,2.37s-2.36-1.06-2.36-2.37v-207.45c0-1.11.78-2.08,1.86-2.31,1.17-.23,2.22.35,2.66,1.34l88.67,195.92v-196.5c0-1.31,1.06-2.36,2.36-2.36s2.36,1.05,2.36,2.36v207.45Z"/>
    <path class="cls-2" d="M804.61,311.97h-30.8c-.13-.01-.24-.07-.37-.07h-34.47c-2.31,0-3.2,1.37-4.07,3.26-.53,1.14-11.44,29.18-15.2,38.86-.61,1.57.56,3.25,2.24,3.25l34.75-.09c1.03,0,1.87.72,2.12,1.68v145.38c0,1.81,1.48,3.3,3.3,3.3h42.5c1.81,0,3.3-1.49,3.3-3.3v-188.97c0-1.81-1.49-3.3-3.3-3.3ZM786.28,487.55c0,1.3-1.06,2.36-2.36,2.36s-2.36-1.06-2.36-2.36v-149.79c0-.51-.42-.92-.94-.92h-30.8c-1.3,0-2.36-1.06-2.36-2.36s1.06-2.36,2.36-2.36h30.8c3.12,0,5.66,2.53,5.66,5.64v149.79Z"/>
    <path class="cls-2" d="M915.19,311.97h-30.79c-.13-.01-.25-.07-.38-.07h-34.47c-2.31,0-3.2,1.37-4.07,3.26-.53,1.14-11.43,29.18-15.2,38.86-.61,1.57.56,3.25,2.24,3.25l34.75-.09c1.04,0,1.87.72,2.12,1.68v145.38c0,1.81,1.49,3.3,3.3,3.3h42.5c1.82,0,3.3-1.49,3.3-3.3v-188.97c0-1.81-1.48-3.3-3.3-3.3ZM896.99,487.55c0,1.3-1.06,2.36-2.36,2.36s-2.36-1.06-2.36-2.36v-149.79c0-.51-.42-.92-.94-.92h-30.8c-1.3,0-2.36-1.06-2.36-2.36s1.06-2.36,2.36-2.36h30.8c3.12,0,5.66,2.53,5.66,5.64v149.79Z"/>
    <path class="cls-2" d="M919.32,525.96h-189.13c-.84,0-1.53.69-1.53,1.54v42.59c0,.84.69,1.53,1.53,1.53h189.13c.84,0,1.53-.69,1.53-1.53v-42.59c0-.85-.69-1.54-1.53-1.54ZM898.09,551.09h-145.25c-1.3,0-2.36-1.06-2.36-2.36s1.06-2.37,2.36-2.37h145.25c1.3,0,2.36,1.06,2.36,2.37s-1.06,2.36-2.36,2.36Z"/>
  </g>
  <g>
    <path class="cls-1" d="M306.3,655.14c0-5.16.55-9.58,1.66-13.27,1.11-3.69,2.61-6.74,4.49-9.15,1.89-2.41,4.09-4.19,6.62-5.33,2.52-1.14,5.2-1.71,8.03-1.71h1.04c.47,0,1,.01,1.58.04s1.16.07,1.75.13,1.1.11,1.54.17v6.07c-.22,0-.57-.01-1.04-.04-.47-.03-.96-.04-1.46-.04h-2.5c-2.61,0-4.86.65-6.74,1.96-1.89,1.3-3.43,3.01-4.62,5.12-1.19,2.11-2.07,4.54-2.62,7.28-.55,2.75-.83,5.53-.83,8.36s.36,5.49,1.08,8.15c.72,2.66,1.76,5.05,3.12,7.16,1.36,2.11,3,3.8,4.91,5.07,1.92,1.28,4.06,1.92,6.45,1.92.5,0,1.21-.01,2.12-.04.92-.03,1.62-.07,2.12-.12v6.07c-.39.05-.86.08-1.41.08-.44.05-.97.08-1.58.08h-2c-2.61,0-5.22-.65-7.82-1.96-2.61-1.3-4.94-3.16-6.99-5.58-2.05-2.41-3.72-5.34-4.99-8.78-1.28-3.44-1.91-7.32-1.91-11.65Z"/>
    <path class="cls-1" d="M360.14,683.1c-1.78,0-3.52-.18-5.24-.54s-3.25-.97-4.58-1.83c-1.33-.86-2.41-2.02-3.25-3.49-.83-1.47-1.25-3.31-1.25-5.53v-34.53c0-3.61,1.18-6.42,3.54-8.45,2.36-2.02,5.95-3.04,10.78-3.04s8.42,1.01,10.78,3.04c2.36,2.02,3.54,4.84,3.54,8.45v34.53c0,2.22-.42,4.06-1.25,5.53-.83,1.47-1.92,2.64-3.25,3.49-1.33.86-2.86,1.47-4.58,1.83s-3.47.54-5.24.54ZM360.14,677.03c2.77-.05,4.7-.57,5.78-1.54s1.62-2.54,1.62-4.7v-32.7c0-2.11-.54-3.65-1.62-4.62-1.08-.97-3.07-1.46-5.95-1.46-2.72,0-4.61.49-5.66,1.46-1.05.97-1.58,2.51-1.58,4.62v32.7c0,2.16.54,3.73,1.62,4.7s3.01,1.48,5.78,1.54Z"/>
    <path class="cls-1" d="M388.93,682.69v-56.59h21.39v6.33h-14.48v18.47h11.81v6.33h-11.81v25.46h-6.91Z"/>
    <path class="cls-1" d="M423.96,682.69v-56.59h21.39v6.33h-14.48v18.47h11.81v6.33h-11.81v25.46h-6.91Z"/>
    <path class="cls-1" d="M465.9,632.43v18.47h11.81v6.33h-11.81v19.39h14.48v6.07h-21.39v-56.59h21.39v6.33h-14.48Z"/>
    <path class="cls-1" d="M501.35,632.43v18.47h11.81v6.33h-11.81v19.39h14.48v6.07h-21.39v-56.59h21.39v6.33h-14.48Z"/>
    <path class="cls-1" d="M580.65,640.41c0,1.55-.06,3.07-.17,4.53-.11,1.47-.32,2.84-.62,4.12-.31,1.28-.76,2.4-1.37,3.37-.61.97-1.41,1.71-2.41,2.2,1.83.78,3.05,2.34,3.66,4.7.61,2.36.92,5.2.92,8.53,0,2.28-.36,4.33-1.08,6.16-.72,1.83-1.69,3.38-2.91,4.66-1.22,1.28-2.66,2.26-4.33,2.95-1.66.69-3.44,1.04-5.33,1.04h-15.23v-56.59h13.98c1.89,0,3.72.35,5.49,1.04,1.77.69,3.36,1.66,4.74,2.91,1.39,1.25,2.5,2.74,3.33,4.49.83,1.75,1.28,3.7,1.33,5.87ZM570.91,643.16c0-.89-.08-1.83-.25-2.83-.17-1-.46-1.93-.87-2.79-.41-.86-.94-1.58-1.58-2.16-.64-.58-1.46-.87-2.46-.87h-4.24v16.39h4.24c1,0,1.82-.19,2.46-.58.64-.39,1.17-.91,1.58-1.58.42-.67.71-1.43.87-2.29s.25-1.73.25-2.62v-.67ZM570.91,667.38c0-.89-.08-1.8-.25-2.75-.17-.94-.46-1.8-.87-2.58-.41-.78-.94-1.43-1.58-1.96-.64-.53-1.46-.79-2.46-.79h-4.24v14.9h4.24c1.94,0,3.29-.69,4.04-2.08.75-1.39,1.12-2.97,1.12-4.74Z"/>
    <path class="cls-1" d="M603.78,625.27c1.83,0,3.63.28,5.41.83,1.77.56,3.37,1.36,4.78,2.41s2.55,2.34,3.41,3.87,1.29,3.26,1.29,5.2v33.7c0,1.94-.43,3.68-1.29,5.2-.86,1.53-2,2.82-3.41,3.87-1.41,1.05-3.01,1.86-4.78,2.41-1.78.55-3.58.83-5.41.83s-3.65-.28-5.45-.83c-1.8-.56-3.4-1.36-4.79-2.41-1.39-1.05-2.51-2.34-3.37-3.87-.86-1.52-1.29-3.26-1.29-5.2v-33.7c0-1.94.43-3.67,1.29-5.2.86-1.53,1.98-2.82,3.37-3.87,1.39-1.05,2.98-1.86,4.79-2.41,1.8-.55,3.62-.83,5.45-.83ZM608.86,639.92c0-1.61-.36-3-1.08-4.16-.72-1.16-2.05-1.8-3.99-1.91-1.94.11-3.27.75-3.99,1.91-.72,1.17-1.08,2.55-1.08,4.16v29.04c0,1.61.36,3,1.08,4.16.72,1.16,2.05,1.8,3.99,1.91,1.94-.11,3.27-.75,3.99-1.91.72-1.17,1.08-2.55,1.08-4.16v-29.04Z"/>
    <path class="cls-1" d="M658.87,626.1v45.19c0,1.94-.43,3.66-1.29,5.16-.86,1.5-2,2.79-3.41,3.87s-3.02,1.9-4.83,2.46c-1.8.55-3.62.83-5.45.83s-3.63-.28-5.41-.83c-1.78-.56-3.37-1.36-4.79-2.41-1.41-1.05-2.55-2.34-3.41-3.87-.86-1.52-1.29-3.26-1.29-5.2v-45.19h9.82v42.86c0,1.61.36,3,1.08,4.16.72,1.16,2.05,1.8,3.99,1.91,1.94-.11,3.29-.75,4.04-1.91.75-1.17,1.12-2.55,1.12-4.16v-42.86h9.82Z"/>
    <path class="cls-1" d="M676.68,682.69v-48.18h-8.32v-8.4h26.46v8.4h-8.4v48.18h-9.74Z"/>
    <path class="cls-1" d="M704.3,626.1h9.82v56.59h-9.82v-56.59Z"/>
    <path class="cls-1" d="M755.14,671.29c0,1.72-.35,3.26-1.04,4.62-.69,1.36-1.6,2.56-2.71,3.62l3.74,3.41-6.32,6.91-6.74-6.33c-.28.05-.58.08-.92.08h-.92c-1.83,0-3.65-.28-5.45-.83-1.8-.56-3.4-1.36-4.79-2.41-1.39-1.05-2.51-2.34-3.37-3.87-.86-1.52-1.29-3.26-1.29-5.2l-.08-33.7c0-1.94.43-3.67,1.29-5.2.86-1.53,1.98-2.82,3.37-3.87,1.39-1.05,2.98-1.86,4.78-2.41,1.8-.55,3.62-.83,5.45-.83s3.63.28,5.41.83c1.77.56,3.37,1.36,4.79,2.41s2.55,2.34,3.41,3.87c.86,1.53,1.29,3.26,1.29,5.2l.08,33.7ZM735.17,668.96c0,1.61.36,3,1.08,4.16.72,1.16,2.05,1.8,3.99,1.91,1.94-.11,3.27-.75,3.99-1.91.72-1.17,1.08-2.55,1.08-4.16l-.08-29.04c0-1.61-.36-3-1.08-4.16-.72-1.16-2.05-1.8-3.99-1.91-1.94.11-3.27.75-3.99,1.91-.72,1.17-1.08,2.55-1.08,4.16l.08,29.04Z"/>
    <path class="cls-1" d="M796.17,626.1v45.19c0,1.94-.43,3.66-1.29,5.16-.86,1.5-2,2.79-3.41,3.87s-3.02,1.9-4.83,2.46c-1.8.55-3.62.83-5.45.83s-3.63-.28-5.41-.83c-1.78-.56-3.37-1.36-4.79-2.41-1.41-1.05-2.55-2.34-3.41-3.87-.86-1.52-1.29-3.26-1.29-5.2v-45.19h9.82v42.86c0,1.61.36,3,1.08,4.16.72,1.16,2.05,1.8,3.99,1.91,1.94-.11,3.29-.75,4.04-1.91.75-1.17,1.12-2.55,1.12-4.16v-42.86h9.82Z"/>
    <path class="cls-1" d="M817.05,634.51v15.64h10.99v8.4h-10.99v15.65h13.4v8.49h-23.13v-56.59h23.13v8.4h-13.4Z"/>
  </g>
  <g>
    <path class="cls-1" d="M401.1,761.31c0-3.41,2.58-5.84,5.17-5.94,2.29-.2,3.68,1.07,3.68,2.92,0,1.46-.89,2.34-2.29,3.31-.99.68-1.79,1.36-1.79,2.43,0,2.04,3.28,3.7,9.74,3.21,7.75-.68,15.21-4.77,20.68-8.47-1.89-1.66-5.47-6.04-5.47-11,.1-5.84,4.67-10.32,11.83-10.22,5.37.19,9.14,4.38,10.34,7.01,1.29-1.27,3.48-3.21,4.67-4.28,5.27-4.67,9.94-8.57,14.91-11.2,3.78-2.04,8.05-3.7,11.93-3.7,1.89,0,2.98.58,3.48.97.6.49.99,1.17.7,1.36-.2.1-.4-.19-1.09-.68-.4-.29-1.39-.58-2.19-.58-1.09,0-2.19.29-3.18,1.07-2.19,1.75-5.77,5.94-8.05,9.15-6.16,8.37-12.92,18.4-18.59,27.46,1.59-.1,3.58-.68,5.57-1.66,2.09-1.07,4.67-3.02,6.26-4.48.5-.49.8-.49.99-.29.2.2-.1.58-.79,1.27-1.39,1.27-3.68,3.11-6.16,4.38-2.09,1.07-4.47,1.66-6.36,1.75-1.39,1.46-2.38,2.14-3.88,2.43-2.88.58-2.78-.68-2.39-1.36.3-.58.6-1.07.8-1.46-1.79-.19-4.77-1.07-6.46-1.75-2.19-.88-4.57-2.24-5.87-3.41-3.78,2.63-12.62,8.28-21.97,8.96-7.75.58-14.22-1.75-14.22-7.11v-.1ZM442.66,739.02c-5.17,0-7.95,4.38-8.15,8.96-.2,4.09,1.99,8.08,3.28,9.64,2.09-1.66,4.57-3.7,7.26-6.04,2.39-2.04,4.77-4.19,7.06-6.23-1.99-3.6-5.27-6.33-9.34-6.33h-.1ZM443.65,761.9c1.59.68,4.67,1.66,6.46,1.85.79-1.36,2.58-3.99,2.98-4.67.7-1.36.79-4.48.6-7.21-.2-2.34-.5-4.19-1.09-5.65-2.39,2.14-4.77,4.28-6.96,6.23-2.68,2.34-4.97,4.28-7.16,6.04,1.09,1.27,3.28,2.53,5.17,3.41ZM466.52,740.48c6.06-7.79,11.43-11.98,16-14.12v-.1c-2.29.19-5.96,1.56-9.44,3.41-4.67,2.53-9.44,6.62-13.32,10.03-2.38,2.14-4.27,3.9-6.26,5.75.5,1.36,1.09,3.31,1.29,6.33.1,1.75,0,3.7-.3,5.45,2.29-3.5,8.55-12.36,12.03-16.74Z"/>
    <path class="cls-1" d="M489.87,763.16c-4.08,3.02-8.15,4.09-11.43,4.19-2.19,0-3.98-.29-3.98-1.95.1-1.85,2.68-2.73,6.46-3.7,2.78-.68,5.87-1.46,7.65-2.24.99-1.07,2.68-3.51,3.18-4.87.4-1.07.7-2.92-.99-2.92-1.79,0-5.07,1.66-8.65,4.38-4.37,3.31-7.26,6.13-11.03,9.83-.79.78-1.79,1.27-2.88,1.36-1.99.1-1.89-.49-1.39-1.56.9-1.95,2.39-4.09,4.08-6.52.89-1.27,1.79-2.53,2.88-3.8h-.1c-1.39,1.17-2.68,2.34-3.58,3.11-.6.49-.89.58-1.09.39-.2-.19,0-.49.5-.97,1.59-1.36,4.08-3.6,6.36-5.45,3.58-4.48,7.56-9.45,12.13-14.6,5.67-6.62,17.8-18.79,23.06-22.49,2.68-1.95,5.57-3.9,8.45-3.9,2.58,0,3.38,1.75,3.08,3.51-.79,4.67-10.34,12.46-20.38,20.64-6.06,4.87-14.41,10.71-20.28,15.87-1.69,2.04-6.66,8.96-6.66,8.96l.1.1c2.88-2.92,6.36-5.55,9.34-7.5,1.99-1.27,5.87-3.21,8.75-2.82,2.19.2,3.38,1.46,3.08,3.7-.4,2.82-2.68,6.33-6.66,9.25ZM483.21,764.62c1.69-1.07,3.18-2.34,4.57-4.09-1.19.58-4.57,1.46-6.16,1.85-3.58.88-5.67,1.75-5.57,3.02.1.78,1.09.97,2.38.87,1.99-.19,3.48-.87,4.77-1.66ZM501.31,734.54c9.54-8.37,18.39-15.87,18.79-20.15.1-1.27-.6-1.85-1.69-1.85-1.69,0-4.37,1.95-6.46,3.89-3.38,3.21-8.05,7.89-13.22,13.92-7.26,8.47-9.84,11.59-15.21,18.6,9.44-8.08,13.32-10.42,17.79-14.41Z"/>
    <path class="cls-1" d="M522.18,755.96c-1.99,1.56-5.37,4.19-7.95,6.13-4.08,3.02-7.65,5.36-10.64,5.36-2.09,0-3.38-.97-3.28-2.73.1-1.36.99-2.82,1.89-3.99,1.99-2.63,3.98-4.97,7.06-7.79-.7.29-2.88,1.85-4.37,3.02s-2.48,1.95-3.48,2.82c-.8.68-1.19.97-1.49.78-.2-.2,0-.58,1.09-1.56,1.09-.97,4.67-3.89,7.06-5.45,2.58-1.75,3.88-2.14,5.77-2.14,2.09,0,2.29.29,1.09,1.56-1.29,1.36-3.18,3.6-5.17,6.04-1.59,2.04-3.18,4.19-3.68,5.26-.4.78-.4,1.46-.1,1.75.4.39,1.29.29,2.29-.19,2.19-1.17,4.37-2.73,7.46-5.06,4.77-3.6,7.55-6.04,10.73-8.47.8-.58,1.39-1.07,2.88-1.07,1.69,0,2.68.2,1.49,1.56-1.79,2.14-3.28,3.7-5.27,6.23-1.69,2.04-3.58,4.48-4.17,5.65-.6,1.17-.5,1.95-.2,2.43.3.58,1.29.88,2.09.88,3.48,0,6.66-.97,9.54-2.34,3.78-1.75,8.15-5.35,10.44-8.47,1.99-2.73,3.78-6.52,3.78-11.1,0-8.47-6.06-11.68-12.53-11.68-1.69,0-3.28.39-4.17.78-.5.19-.89.39-1.09.19-.1-.19.2-.49.8-.78.89-.49,2.88-1.07,5.07-1.07,7.06-.1,14.91,3.31,14.91,12.46,0,5.26-2.98,9.35-5.17,11.98-2.78,3.31-6.86,6.23-11.73,8.57-2.78,1.36-7.36,2.63-11.83,2.63h-.1c-2.38,0-4.47-.68-4.77-2.82-.2-1.56.4-3.02,1.19-4.19,1.09-1.56,3.18-3.6,4.67-5.06l-.1-.1Z"/>
    <path class="cls-1" d="M599.52,740.28c0-2.73-1.79-4.38-4.37-4.48-2.68-.1-5.17,1.27-6.46,2.53-1.29,1.27-1.49,2.04-1.79,1.95-.2-.1.1-1.07,1.19-2.24,1.19-1.36,3.98-3.31,7.36-3.11,2.98.1,5.57,2.04,5.57,5.55s-2.29,7.49-5.96,10.51c-3.88,3.12-9.25,5.26-15.31,4.97-7.26-.39-11.63-3.5-11.53-9.54.2-11.68,17.5-20.64,34.4-20.64,8.25,0,16.9,2.04,22.07,6.52,1.19-.78,3.98-2.43,6.46-3.41,2.68-1.07,6.06-1.95,9.74-1.95,2.68,0,4.57.78,5.57,1.46.69.49,1.09,1.27.89,1.46-.3.1-.3-.29-1.39-.97-.8-.49-2.58-1.07-5.07-1.07-3.18,0-6.46.88-9.24,2.04-2.68,1.17-5.07,2.73-5.97,3.51,5.97,6.42,5.77,15.67,1.09,22.49-5.57,8.08-17.8,11.78-27.84,11.78-5.17,0-10.93-.29-13.62-.49-2.78.29-7.06.58-9.84.58-8.95,0-15.81.1-15.71-1.75.2-1.85,6.36-2.14,14.41-1.85,3.58.1,9.25.78,13.32,1.46,8.25-2.34,13.22-10.03,19.29-17.04,4.77-5.55,11.63-12.17,16.4-15.29-4.47-4.48-13.32-6.62-20.58-6.62-15.71,0-30.02,9.54-30.22,20.54,0,4.28,2.39,7.5,7.46,7.79,5.67.29,10.44-1.95,14.02-5.06,3.48-3.12,5.67-6.82,5.67-9.54v-.1ZM597.33,766.67c10.14,0,18.89-4.28,25.25-12.85,4.67-6.42,5.57-14.6,1.69-19.47-3.48,3.21-7.85,10.32-12.23,15.77-7.76,9.15-14.51,13.15-23.06,15.68,1.39.29,5.97.87,8.35.87Z"/>
    <path class="cls-1" d="M644.25,757.51c-4.37,3.31-6.76,5.55-11.13,8.86-.9.68-1.49.88-2.58.88-1.39,0-1.99-.19-1.29-1.56.99-1.85,2.48-4.09,4.17-6.52,1.19-1.66,4.97-6.62,8.55-11,2.58-3.21,5.87-7.11,8.85-10.42,3.48-3.8,7.66-8.08,11.93-11.98,1.09-.97,2.29-1.66,3.58-1.66.99,0,1.39.19,1.49.68-1.89,1.85-10.64,11.29-14.81,16.16-8.25,9.64-14.51,18.3-16.9,21.71l.1.1c2.38-1.95,5.67-4.77,9.15-7.3,3.48-2.53,7.85-5.26,10.83-5.26,2.09,0,3.28.97,3.08,2.63-.3,1.75-2.39,3.99-3.98,5.94-1.59,1.85-2.68,3.31-3.28,4.28-.7,1.17-.79,1.85-.4,2.14.5.39,1.59,0,2.38-.39,1.19-.58,2.49-1.27,4.77-3.02,1.69-1.27,3.68-3.02,4.77-3.99.8-.68,1.09-.78,1.29-.58.2.2-.1.58-.8,1.27-.89.88-3.88,3.51-5.96,5.06-1.99,1.46-5.87,3.9-8.95,3.9-1.99,0-3.08-.88-2.98-2.53.1-2.14,2.29-4.58,4.17-6.82,1.49-1.75,2.98-3.31,4.17-4.77.4-.49.6-1.07.1-1.36s-1.59.1-2.58.58c-1.79.88-4.57,2.53-7.75,4.97Z"/>
    <path class="cls-1" d="M690.57,750.21c2.09-.1,2.29.39,1.29,1.56-1.29,1.46-3.48,3.9-5.57,6.43-1.29,1.56-2.58,3.21-3.48,4.77-.69,1.17-.69,1.95-.3,2.24.5.39,1.49,0,2.29-.39.99-.49,2.88-1.75,4.47-3.02,2.09-1.66,3.68-3.02,4.77-3.99.6-.49,1.09-.97,1.39-.68.3.29-.2.78-1.29,1.75-1.29,1.17-3.68,3.21-5.57,4.67-1.99,1.56-5.27,3.9-8.55,3.9-1.89,0-2.78-.88-2.88-2.04-.1-1.07.5-2.44,1.39-3.51l-.1-.1c-2.59,2.24-7.16,5.45-10.94,5.65-2.19.1-4.47-.78-4.08-3.9.2-1.46.99-3.02,2.78-5.06l-.1-.1c-.3.29-.7.68-1.29,1.17-.4.29-.69.49-.89.29-.2-.29.3-.88,1.39-1.85.3-.29,1.99-1.66,2.98-2.34s2.68-1.75,4.57-2.73c3.88-1.95,7.36-3.12,9.94-2.73,1.99.29,2.68,2.04,2.09,3.7,2.39-2.43,4.08-3.7,5.67-3.7ZM673.27,757.32c-4.08,3.9-5.77,6.43-5.57,7.69.1.68.6.97,1.29.97,1.89,0,5.67-2.14,8.35-4.58,3.18-2.73,6.76-6.91,6.86-8.47.1-1.27-.7-1.75-1.79-1.75-1.99,0-5.57,2.63-9.15,6.13Z"/>
    <path class="cls-1" d="M700.11,755.37c-1.39,1.17-2.68,2.34-3.58,3.11-.6.49-.89.58-1.09.39-.2-.19,0-.49.5-.97,1.59-1.36,4.08-3.6,6.36-5.45,3.58-4.48,7.56-9.45,12.13-14.6,5.67-6.62,17.99-18.89,23.06-22.49,2.58-1.85,5.57-3.9,8.45-3.9,2.58,0,3.38,1.75,3.08,3.51-.79,4.67-10.34,12.46-20.38,20.64-6.06,4.87-14.41,10.71-20.28,15.87-1.69,2.04-3.08,3.8-5.17,6.72-.89,1.17-2.98,4.28-3.08,6.33-.1,1.36.5,2.04,1.89,2.04,1.49,0,4.17-1.17,7.46-4.28,1.89-1.75,3.58-4.48,4.17-6.04-.4-.49-.8-1.46-.6-2.73.3-1.95,1.59-3.5,3.08-3.5,1.19,0,1.49,1.46,1.29,2.73-.2,1.36-.9,2.92-1.29,3.7.3.2,1.19.39,2.29.39,1.79,0,3.88-1.07,5.47-2.34.69-.58,1.99-1.56,2.58-1.95,2.29-1.66,3.78-2.14,5.67-2.14,2.09,0,2.29.29,1.09,1.56-1.79,1.95-3.38,3.8-5.37,6.23-1.69,2.04-2.88,3.8-3.48,4.77-.6,1.07-.7,1.75-.3,2.14.5.39,1.39.2,2.39-.29.99-.49,2.68-1.56,4.37-2.92,2.09-1.66,2.98-2.43,4.57-3.9.89-.78,1.29-1.17,1.59-.88.3.29-.8,1.27-1.09,1.56-1.19,1.17-3.68,3.31-5.67,4.87-1.99,1.56-5.37,3.99-8.65,3.99-2.09,0-2.98-.97-2.98-2.53,0-1.26.7-2.53,1.49-3.7,1.99-3.02,5.87-7.01,7.46-8.37-.7.29-1.49.97-3.18,2.24-1.79,1.36-3.68,2.43-5.77,2.53-1.59.1-2.68-.29-2.98-.49-.79,1.27-3.08,3.99-5.37,5.94-3.28,2.82-6.26,4.58-9.44,4.58h-.1c-2.68,0-4.77-1.17-4.77-3.99,0-2.24,1.09-4.48,2.39-6.04.69-.88,1.09-1.36,1.89-2.24l-.1-.1ZM727.75,734.54c9.54-8.37,18.39-15.87,18.79-20.15.1-1.27-.6-1.85-1.69-1.85-1.69,0-4.37,1.95-6.46,3.89-3.28,3.21-8.05,7.89-13.22,13.92-7.26,8.47-9.84,11.59-15.21,18.6,9.44-8.08,13.32-10.42,17.79-14.41ZM735.7,741.06c.7-1.46,2.09-1.85,3.98-1.85,1.39,0,1.99,1.07.79,2.53-1.19,1.56-3.68,2.63-4.67,2.63-.5-.58-.6-2.04-.1-3.31Z"/>
  </g>
</svg>